Coordinates
version=1
nRows=6
nColumns=107
inDegrees=yes

Units are S.I. units (second, meters, Newtons, ...)
If the header above contains a line with 'inDegrees', this indicates whether rotational values are in degrees (yes) or radians (no).

endheader
time	sternoclavicular_r2	sternoclavicular_r3	unrotscap_r3	unrotscap_r2	acromioclavicular_r2	acromioclavicular_r3	acromioclavicular_r1	unrothum_r1	unrothum_r3	unrothum_r2	elv_angle	shoulder_elv	shoulder1_r2	shoulder_rot	elbow_flexion	pro_sup	deviation	flexion	proximal_distal_r1	proximal_distal_r3	cmc_flexion	cmc_abduction	mp_flexion	ip_flexion	mcp2_flexion	mcp2_abduction	pm2_flexion	md2_flexion	mcp3_flexion	mcp3_abduction	pm3_flexion	md3_flexion	mcp4_flexion	mcp4_abduction	pm4_flexion	md4_flexion	mcp5_flexion	mcp5_abduction	pm5_flexion	md5_flexion	bicpt_tx	bicpt_ty	bicpt_tz	bicpt2_tx	bicpt2_ty	bicpt2_tz	ptpt_tx	ptpt_ty	ptpt_tz	FCUpt_tx	FCUpt_ty	FCUpt_tz	EDCpt_tx	EDCpt_ty	EDCpt_tz	APLpt_tx	APLpt_ty	APLpt_tz	FPLpt_tx	FPLpt_ty	FPLpt_tz	FPLpt2_tx	FPLpt2_ty	FPLpt2_tz	PEC1pt2_tx	PEC1pt2_ty	PEC1pt2_tz	PEC1pt3_tx	PEC1pt3_ty	PEC1pt3_tz	PEC2pt2_tx	PEC2pt2_ty	PEC2pt2_tz	PEC2pt3_tx	PEC2pt3_ty	PEC2pt3_tz	PEC3pt2_tx	PEC3pt2_ty	PEC3pt2_tz	PEC3pt3_tx	PEC3pt3_ty	PEC3pt3_tz	DELT2pt2a_tx	DELT2pt2a_ty	DELT2pt2a_tz	DELT2pt2_tx	DELT2pt2_ty	DELT2pt2_tz	LAT1pt2_tx	LAT1pt2_ty	LAT1pt2_tz	LAT1pt3_tx	LAT1pt3_ty	LAT1pt3_tz	LAT2pt2_tx	LAT2pt2_ty	LAT2pt2_tz	LAT2pt3_tx	LAT2pt3_ty	LAT2pt3_tz	LAT3pt2_tx	LAT3pt2_ty	LAT3pt2_tz	LAT3pt3_tx	LAT3pt3_ty	LAT3pt3_tz
      0.46666667	     -0.32824135	      0.13902754	     -0.13902754	      0.32824135	     -0.06646220	      0.53712409	      0.24143358	     -0.24143358	     -0.53712409	      0.06646220	     97.57374873	     77.71405746	     -1.70298318	    -16.10084099	     29.10975453	     21.98000011	      0.11464083	     -0.65457928	      0.14482652	     -0.32728964	     -2.32333611	     -2.35261195	    -18.81369798	    -27.57331324	     -0.42641775	     14.10787578	      7.26534341	    -24.40601467	     44.49195840	      9.79400496	     83.83145026	     51.35524882	     33.44750400	     -1.08426825	     92.70061071	     36.25130525	      2.95561119	    -14.16411679	     -9.54248662	      5.06243658	      0.00086286	     -0.03093642	     -0.00483741	      0.01616930	     -0.01810781	     -0.00916605	      0.00592593	     -0.06595015	     -0.00182061	      0.00601612	     -0.18382382	     -0.00013623	     -0.00263759	      0.00069732	      0.00018779	      0.00031090	      0.00012436	      0.00062180	      0.00039795	      0.00119386	      0.00067154	     -0.00011042	      0.00006108	      0.00007330	      0.00254730	      0.00893712	      0.00621713	     -0.00833268	      0.02011932	     -0.01908313	      0.00254730	      0.00893712	      0.00621713	      0.00056127	      0.01865139	     -0.00980061	      0.00400607	      0.00496982	      0.01610797	      0.00000000	      0.00807931	      0.00000000	     -0.00729649	     -0.03371929	     -0.00666339	      0.01142455	     -0.00031531	     -0.00206831	     -0.00090666	      0.01519743	     -0.00621713	      0.00250412	      0.02193265	     -0.01813330	     -0.00608761	      0.01316823	     -0.00556951	     -0.01269331	      0.02780439	     -0.03112882	     -0.02383233	      0.01472251	     -0.00746919	     -0.01580187	      0.03212184	     -0.03890024
      0.50000000	     -0.32926686	      0.13946190	     -0.13946190	      0.32926686	     -0.06666984	      0.53880221	      0.24218789	     -0.24218789	     -0.53880221	      0.06666984	     97.38501487	     77.95685669	     -1.69968915	    -15.11912468	     29.19398900	     21.79723296	      0.13126479	     -0.61716913	      0.16404169	     -0.30858456	     -2.06926974	     -2.65798710	    -18.70434911	    -27.94455320	     -0.83134927	     14.10658277	      7.50391587	    -26.93345755	     44.50185811	     10.07287202	     83.60804818	     53.10663651	     33.56648699	     -0.70474748	     92.14602891	     37.60818311	      3.51883364	    -14.14752398	    -10.37086853	      5.07965597	      0.00086565	     -0.03094608	     -0.00483897	      0.01616140	     -0.01813069	     -0.00918092	      0.00593943	     -0.06594142	     -0.00180588	      0.00599874	     -0.18382668	     -0.00013244	     -0.00261566	      0.00069091	      0.00018731	      0.00031248	      0.00012499	      0.00062497	      0.00039998	      0.00119994	      0.00067497	     -0.00009395	      0.00005411	      0.00006493	      0.00255525	      0.00896505	      0.00623655	     -0.00835871	      0.02018218	     -0.01914276	      0.00255525	      0.00896505	      0.00623655	      0.00056302	      0.01870966	     -0.00983123	      0.00401511	      0.00498535	      0.01612948	      0.00000000	      0.00813026	      0.00000000	     -0.00731929	     -0.03382464	     -0.00670566	      0.01080041	     -0.00028698	     -0.00179905	     -0.00090950	      0.01524491	     -0.00623655	      0.00251195	      0.02200118	     -0.01818995	     -0.00610663	      0.01320937	     -0.00558691	     -0.01273296	      0.02789125	     -0.03122608	     -0.02390679	      0.01476851	     -0.00749253	     -0.01585124	      0.03222219	     -0.03902177
      0.53333333	     -0.32915506	      0.13941455	     -0.13941455	      0.32915506	     -0.06664720	      0.53861926	      0.24210565	     -0.24210565	     -0.53861926	      0.06664720	     97.39565996	     77.93038624	     -1.69987494	    -15.11054127	     29.19494156	     21.79772928	      0.13121470	     -0.61712283	      0.16398434	     -0.30856141	     -2.06964685	     -2.65764640	    -18.70444996	    -27.94453613	     -0.83025039	     14.10659909	      7.50398001	    -26.93306677	     44.50318506	     10.07288069	     83.60818147	     53.10650824	     33.56737397	     -0.70470127	     92.14586493	     37.60802676	      3.52111748	    -14.14725436	    -10.36985221	      5.07973566	      0.00086568	     -0.03094619	     -0.00483898	      0.01616141	     -0.01813095	     -0.00918088	      0.00593939	     -0.06594144	     -0.00180592	      0.00599879	     -0.18382668	     -0.00013245	     -0.00261572	      0.00069092	      0.00018731	      0.00031247	      0.00012499	      0.00062493	      0.00039996	      0.00119987	      0.00067493	     -0.00009399	      0.00005412	      0.00006495	      0.00255439	      0.00896200	      0.00623444	     -0.00835588	      0.02017533	     -0.01913626	      0.00255439	      0.00896200	      0.00623444	      0.00056283	      0.01870331	     -0.00982790	      0.00401412	      0.00498366	      0.01612714	      0.00000000	      0.00812469	      0.00000000	     -0.00731680	     -0.03381316	     -0.00670105	      0.01079489	     -0.00028674	     -0.00179677	     -0.00090919	      0.01523973	     -0.00623444	      0.00251109	      0.02199371	     -0.01818377	     -0.00610455	      0.01320488	     -0.00558502	     -0.01272864	      0.02788178	     -0.03121548	     -0.02389867	      0.01476349	     -0.00748998	     -0.01584586	      0.03221125	     -0.03900852
      0.56666667	     -0.32537867	      0.13781505	     -0.13781505	      0.32537867	     -0.06588256	      0.53243969	      0.23932798	     -0.23932798	     -0.53243969	      0.06588256	     98.14448191	     77.03629256	     -1.71294435	    -19.32105888	     29.16621685	     24.89398489	      0.09337264	     -0.64426245	      0.11958417	     -0.32213122	     -2.63334794	     -2.15898510	    -18.75247866	    -27.71327579	     -0.33979698	     14.10688453	      7.20088417	    -25.34290976	     44.91232500	      9.68593986	     83.77261859	     52.13139320	     33.62247432	     -1.07009557	     92.78076345	     36.45439784	      3.14625452	    -14.14179403	     -9.71249600	      5.05890414	      0.00086473	     -0.03094289	     -0.00483845	      0.01628516	     -0.01812315	     -0.00892265	      0.00571062	     -0.06608938	     -0.00205534	      0.00629460	     -0.18377691	     -0.00019326	     -0.00298727	      0.00080096	      0.00019303	      0.00031158	      0.00012463	      0.00062316	      0.00039882	      0.00119647	      0.00067302	     -0.00013211	      0.00006969	      0.00008362	      0.00252508	      0.00885918	      0.00616291	     -0.00826001	      0.01994386	     -0.01891671	      0.00252508	      0.00885918	      0.00616291	      0.00055637	      0.01848873	     -0.00971514	      0.00398071	      0.00492648	      0.01604719	      0.00000000	      0.00793799	      0.00000000	     -0.00723286	     -0.03342522	     -0.00654611	      0.01338139	     -0.00041118	     -0.00306616	     -0.00089876	      0.01506489	     -0.00616291	      0.00248228	      0.02174137	     -0.01797515	     -0.00603451	      0.01305338	     -0.00552094	     -0.01258261	      0.02756190	     -0.03085734	     -0.02362448	      0.01459411	     -0.00740405	     -0.01566406	      0.03184169	     -0.03856098
      0.60000000	     -0.32527771	      0.13777229	     -0.13777229	      0.32527771	     -0.06586212	      0.53227449	      0.23925372	     -0.23925372	     -0.53227449	      0.06586212	     98.16556938	     77.01238985	     -1.71331240	    -19.31042575	     29.17487275	     24.89319566	      0.09330732	     -0.64420313	      0.11950503	     -0.32210157	     -2.63344678	     -2.15935074	    -18.75265211	    -27.71340302	     -0.33798298	     14.10691609	      7.20108056	    -25.34270892	     44.91378714	      9.68588312	     83.77304793	     52.13154495	     33.62332125	     -1.06989197	     92.78139975	     36.45451310	      3.15255264	    -14.14121405	     -9.71010438	      5.05915790	      0.00086501	     -0.03094389	     -0.00483861	      0.01628513	     -0.01812550	     -0.00892271	      0.00571067	     -0.06608934	     -0.00205528	      0.00629452	     -0.18377692	     -0.00019325	     -0.00298718	      0.00080093	      0.00019303	      0.00031157	      0.00012463	      0.00062314	      0.00039881	      0.00119643	      0.00067299	     -0.00013214	      0.00006969	      0.00008363	      0.00252430	      0.00885643	      0.00616100	     -0.00825745	      0.01993767	     -0.01891084	      0.00252430	      0.00885643	      0.00616100	      0.00055620	      0.01848299	     -0.00971213	      0.00397981	      0.00492495	      0.01604503	      0.00000000	      0.00793302	      0.00000000	     -0.00723061	     -0.03341485	     -0.00654199	      0.01337515	     -0.00041085	     -0.00306258	     -0.00089848	      0.01506021	     -0.00616100	      0.00248151	      0.02173463	     -0.01796957	     -0.00603264	      0.01304933	     -0.00551923	     -0.01257870	      0.02755334	     -0.03084777	     -0.02361715	      0.01458958	     -0.00740175	     -0.01565920	      0.03183181	     -0.03854901
      0.63333333	     -0.32624122	      0.13818038	     -0.13818038	      0.32624122	     -0.06605721	      0.53385114	      0.23996241	     -0.23996241	     -0.53385114	      0.06605721	     97.94282323	     77.24050812	     -1.70942474	    -18.65713162	     29.40110647	     25.65445856	      0.10800525	     -0.59496539	      0.13703054	     -0.29748270	     -2.61111559	     -3.24837991	    -17.84366525	    -28.26438759	     -1.50286836	     14.10539038	      8.63283262	    -26.96629772	     44.56172680	     10.16688049	     84.49302054	     52.93096865	     33.78117369	     -0.44895888	     92.55964633	     39.09690185	      5.43161588	    -14.09638402	     -9.47041750	      5.04947294	      0.00087250	     -0.03096982	     -0.00484279	      0.01631221	     -0.01818695	     -0.00885717	      0.00565442	     -0.06612571	     -0.00211660	      0.00636770	     -0.18376427	     -0.00020710	     -0.00307853	      0.00082844	      0.00019364	      0.00031230	      0.00012492	      0.00062459	      0.00039974	      0.00119922	      0.00067456	     -0.00013019	      0.00006905	      0.00008286	      0.00253177	      0.00888267	      0.00617925	     -0.00828191	      0.01999673	     -0.01896685	      0.00253177	      0.00888267	      0.00617925	      0.00055785	      0.01853774	     -0.00974089	      0.00398837	      0.00493954	      0.01606562	      0.00000000	      0.00798043	      0.00000000	     -0.00725203	     -0.03351383	     -0.00658134	      0.01298929	     -0.00039106	     -0.00284641	     -0.00090114	      0.01510482	     -0.00617925	      0.00248886	      0.02179901	     -0.01802280	     -0.00605051	      0.01308799	     -0.00553557	     -0.01261596	      0.02763496	     -0.03093914	     -0.02368711	      0.01463280	     -0.00742368	     -0.01570558	      0.03192610	     -0.03866320
